# xmcd
#
# Track frame offsets:
#  150
#  25666
#  48051
#  68868
#  88615
#  107663
#  126812
#  153631
#  183317
#  216754
#  230951
#  255770
#  271665
#  290901
#
# Disc length: 4099 seconds
#
# Revision: 0
# Processed by: cddbd v1.5PL3 Copyright (c) Steve Scherf et al.
# Submitted via: AltoMP3_Maker 3.0
#
DISCID=c010010e
DTITLE=various Artist - Golden Remix
DYEAR=1900
DGENRE=
TTITLE0=Zindagi Ka Safar
TTITLE1=Dil Ke Tukre
TTITLE2=Mere Beri Ke Ber
TTITLE3=Mera Babu Chail Chaibla
TTITLE4=Hasta Hua
TTITLE5=Inhi Logo Ne
TTITLE6=Tera Jaisa Yaar
TTITLE7=Duma Dum Mast
TTITLE8=Dil Deta Hai
TTITLE9=Choti Se Umar
TTITLE10=Kehdo Ek Baar
TTITLE11=Awo Jhoom Gaye
TTITLE12=Yaar Bina
TTITLE13=Prem Kahani
EXTD=
EXTT0=
EXTT1=
EXTT2=
EXTT3=
EXTT4=
EXTT5=
EXTT6=
EXTT7=
EXTT8=
EXTT9=
EXTT10=
EXTT11=
EXTT12=
EXTT13=
PLAYORDER=
